# xmcd
#
# Track frame offsets: 
#        150
#        8682
#        26897
#        45955
#        60967
#        76030
#        88841
#        103741
#        123704
#        141213
#        159398
#        174192
#        190654
#        209324
#        223040
#        246629
#
# Disc length: 3351 seconds
#
# Revision: 1
# Processed by: cddbd v1.5.2PL0 Copyright (c) Steve Scherf et al.
# Submitted via: ExactAudioCopy v1.3
#
DISCID=d20d1510
DTITLE=Jully Black - This Is Me
DYEAR=2005
DGENRE=R&B
TTITLE0=This Is Me (Intro)
TTITLE1=Hurt U Bad
TTITLE2=The Things You Do
TTITLE3=Sweat Of Your Brow (Feat. Demarco)
TTITLE4=Calling You
TTITLE5=Stay The Night
TTITLE6=Free To Love You
TTITLE7=Material Things (Feat. Nas)
TTITLE8=Double Life
TTITLE9=5x Love
TTITLE10=Just Life
TTITLE11=Lovin' You
TTITLE12=Living In The Ghetto
TTITLE13=Gotta Let You Know (Scream)
TTITLE14=I Travelled
TTITLE15=This Is Me (Outro)
EXTD=
EXTT0=
EXTT1=
EXTT2=
EXTT3=
EXTT4=
EXTT5=
EXTT6=
EXTT7=
EXTT8=
EXTT9=
EXTT10=
EXTT11=
EXTT12=
EXTT13=
EXTT14=
EXTT15=
PLAYORDER=
